<svg width="54" height="50" viewBox="0 0 54 50" fill="none" xmlns="http://www.w3.org/2000/svg">
<g clip-path="url(#clip0_78_2996)">
<path d="M36.5002 13.4998H33.3335C33.3335 10.0007 30.4993 7.1665 27.0002 7.1665C23.501 7.1665 20.6668 10.0007 20.6668 13.4998H17.5002C15.7585 13.4998 14.3335 14.9248 14.3335 16.6665V35.6665C14.3335 37.4082 15.7585 38.8332 17.5002 38.8332H36.5002C38.2418 38.8332 39.6668 37.4082 39.6668 35.6665V16.6665C39.6668 14.9248 38.2418 13.4998 36.5002 13.4998ZM27.0002 10.3332C28.7418 10.3332 30.1668 11.7582 30.1668 13.4998H23.8335C23.8335 11.7582 25.2585 10.3332 27.0002 10.3332ZM36.5002 35.6665H17.5002V16.6665H20.6668V19.8332C20.6668 20.704 21.3793 21.4165 22.2502 21.4165C23.121 21.4165 23.8335 20.704 23.8335 19.8332V16.6665H30.1668V19.8332C30.1668 20.704 30.8793 21.4165 31.7502 21.4165C32.621 21.4165 33.3335 20.704 33.3335 19.8332V16.6665H36.5002V35.6665Z" fill="#002F52"/>
</g>
<defs>
<clipPath id="clip0_78_2996">
<rect width="38" height="38" fill="white" transform="translate(8 4)"/>
</clipPath>
</defs>
</svg>
